0
SECTION
2
HEADER
9
$INSUNITS
70
4
9
$ACADVER
1
AC1014
9
$HANDSEED
5
FFFF
0
ENDSEC
0
SECTION
2
TABLES
0
TABLE
2
VPORT
5
8
100
AcDbSymbolTable
0
ENDTAB
0
TABLE
2
LTYPE
5
5
100
AcDbSymbolTable
0
LTYPE
5
14
100
AcDbSymbolTableRecord
100
AcDbLinetypeTableRecord
2
BYBLOCK
70
0
0
LTYPE
5
15
100
AcDbSymbolTableRecord
100
AcDbLinetypeTableRecord
2
BYLAYER
70
0
0
ENDTAB
0
TABLE
2
LAYER
5
2
100
AcDbSymbolTable
70
2
0
LAYER
5
50
100
AcDbSymbolTableRecord
100
AcDbLayerTableRecord
2
0
70
0
6
CONTINUOUS
0
ENDTAB
0
TABLE
2
STYLE
5
3
100
AcDbSymbolTable
70
1
0
STYLE
5
11
100
AcDbSymbolTableRecord
100
AcDbTextStyleTableRecord
2
STANDARD
70
0
0
ENDTAB
0
TABLE
2
VIEW
5
6
100
AcDbSymbolTable
70
0
0
ENDTAB
0
TABLE
2
UCS
5
7
100
AcDbSymbolTable
70
0
0
ENDTAB
0
TABLE
2
APPID
5
9
100
AcDbSymbolTable
70
2
0
APPID
5
12
100
AcDbSymbolTableRecord
100
AcDbRegAppTableRecord
2
ACAD
70
0
0
ENDTAB
0
TABLE
2
DIMSTYLE
5
A
100
AcDbSymbolTable
70
1
0
ENDTAB
0
TABLE
2
BLOCK_RECORD
5
1
100
AcDbSymbolTable
70
1
0
BLOCK_RECORD
5
1F
100
AcDbSymbolTableRecord
100
AcDbBlockTableRecord
2
*MODEL_SPACE
0
BLOCK_RECORD
5
1B
100
AcDbSymbolTableRecord
100
AcDbBlockTableRecord
2
*PAPER_SPACE
0
ENDTAB
0
ENDSEC
0
SECTION
2
BLOCKS
0
BLOCK
5
20
100
AcDbEntity
100
AcDbBlockBegin
2
*MODEL_SPACE
0
ENDBLK
5
21
100
AcDbEntity
100
AcDbBlockEnd
0
BLOCK
5
1C
100
AcDbEntity
100
AcDbBlockBegin
2
*PAPER_SPACE
0
ENDBLK
5
1D
100
AcDbEntity
100
AcDbBlockEnd
0
ENDSEC
0
SECTION
2
ENTITIES
0
CIRCLE
5
100
100
AcDbEntity
8
0
100
AcDbCircle
10
0
20
0
30
0
40
183.5
210
0
220
0
230
1
0
CIRCLE
5
101
100
AcDbEntity
8
0
100
AcDbCircle
10
0
20
0
30
0
40
177.5
210
0
220
0
230
1
0
CIRCLE
5
102
100
AcDbEntity
8
0
100
AcDbCircle
10
-177.5
20
1.0304000831403421e-14
30
0
40
1.9999999999999929
210
0
220
0
230
1
0
CIRCLE
5
103
100
AcDbEntity
8
0
100
AcDbCircle
10
88.749999999999972
20
-153.71950917173788
30
0
40
1.9999999999999929
210
0
220
0
230
1
0
CIRCLE
5
104
100
AcDbEntity
8
0
100
AcDbCircle
10
88.750000000000085
20
153.7195091717378
30
0
40
1.9999999999999929
210
0
220
0
230
1
0
CIRCLE
5
105
100
AcDbEntity
8
0
100
AcDbCircle
10
0
20
0
30
0
40
15
210
0
220
0
230
1
0
CIRCLE
5
106
100
AcDbEntity
8
0
100
AcDbCircle
10
-24.565863990249923
20
-24.565863992551868
30
0
40
1.9500000000000028
210
0
220
-0
230
1
0
LWPOLYLINE
5
107
100
AcDbEntity
8
0
100
AcDbPolyline
90
8
70
1
43
0.0
10
22.499999999271019
20
7.8700144560589891
10
22.499999999271015
20
-7.8700144533157061
42
-1.8865738593136734
10
7.8700144565002894
20
-22.500000001573
10
-7.8700144537570367
20
-22.500000001572996
42
-1.8865738591783063
10
-22.500000000728981
20
-7.8700144563384455
10
-22.500000000728988
20
7.8700144535951821
42
-1.8865738594704
10
-7.870014455897163
20
22.499999998427
10
7.8700144531538374
20
22.499999998427
42
-1.8865738596057597
0
CIRCLE
5
108
100
AcDbEntity
8
0
100
AcDbCircle
10
24.565863990249888
20
24.565863992551904
30
0
40
1.9500000000000028
210
0
220
-0
230
1
0
CIRCLE
5
109
100
AcDbEntity
8
0
100
AcDbCircle
10
24.565863992551868
20
-24.565863990249923
30
0
40
1.9500000000000028
210
0
220
-0
230
1
0
CIRCLE
5
110
100
AcDbEntity
8
0
100
AcDbCircle
10
-24.565863992551886
20
24.565863990249923
30
0
40
1.9500000000000028
210
0
220
-0
230
1
0
LWPOLYLINE
5
111
100
AcDbEntity
8
0
100
AcDbPolyline
90
8
70
1
43
0.0
10
22.549999999271016
20
7.8287588768594247
10
22.549999999271016
20
-7.8287588741082796
42
-1.8790884759833761
10
7.8287588773085925
20
-22.550000001572997
10
-7.8287588745574705
20
-22.55000000157299
42
-1.8790884758492983
10
-22.550000000728978
20
-7.8287588771438603
10
-22.550000000728978
20
7.8287588743927339
42
-1.8790884761386131
10
-7.8287588766947147
20
22.549999998426998
10
7.8287588739435225
20
22.549999998426991
42
-1.8790884762726863
0
LWPOLYLINE
5
112
100
AcDbEntity
8
0
100
AcDbPolyline
90
6
70
1
43
0.0
10
0
20
42.426406871192846
10
0
20
-42.426406871192846
10
42.426406871192846
20
-8.8817841970012523e-15
10
-42.426406871192846
20
8.8817841970012523e-15
10
0
20
42.426406871192846
10
42.426406871192846
20
-8.8817841970012523e-15
0
CIRCLE
5
113
100
AcDbEntity
8
0
100
AcDbCircle
10
-8.8817841970012523e-15
20
-32.426406871192846
30
0
40
1.9499999999999984
210
-0
220
0
230
1
0
LINE
5
114
100
AcDbEntity
8
0
100
AcDbLine
10
-42.426406871192846
20
8.8817841970012523e-15
30
0
11
-32.426406871192846
21
6.6613381477509392e-15
31
0
0
CIRCLE
5
115
100
AcDbEntity
8
0
100
AcDbCircle
10
-32.426406871192846
20
6.6613381477509392e-15
30
0
40
1.9499999999999984
210
-0
220
0
230
1
0
CIRCLE
5
116
100
AcDbEntity
8
0
100
AcDbCircle
10
8.8817841970012523e-15
20
32.426406871192846
30
0
40
1.9499999999999984
210
-0
220
0
230
1
0
CIRCLE
5
117
100
AcDbEntity
8
0
100
AcDbCircle
10
32.426406871192846
20
-1.1102230246251565e-14
30
0
40
1.9499999999999984
210
-0
220
0
230
1
0
CIRCLE
5
118
100
AcDbEntity
8
0
100
AcDbCircle
10
-8.8817841970012523e-15
20
-32.426406871192846
30
0
40
4.4499999999999993
210
-0
220
0
230
1
0
CIRCLE
5
119
100
AcDbEntity
8
0
100
AcDbCircle
10
32.426406871192846
20
-1.1102230246251565e-14
30
0
40
4.4499999999999993
210
-0
220
0
230
1
0
CIRCLE
5
120
100
AcDbEntity
8
0
100
AcDbCircle
10
8.8817841970012523e-15
20
32.426406871192846
30
0
40
4.4499999999999993
210
-0
220
0
230
1
0
CIRCLE
5
121
100
AcDbEntity
8
0
100
AcDbCircle
10
-32.426406871192846
20
6.6613381477509392e-15
30
0
40
4.4499999999999993
210
-0
220
0
230
1
0
LINE
5
122
100
AcDbEntity
8
0
100
AcDbLine
10
0
20
0
30
0
11
-152.40000000000001
21
-3.9622667909774746e-14
31
0
0
LINE
5
123
100
AcDbEntity
8
0
100
AcDbLine
10
-152.40000000000001
20
-3.9622667909774746e-14
30
0
11
-124.1157287525381
21
28.284271247461863
31
0
0
LINE
5
124
100
AcDbEntity
8
0
100
AcDbLine
10
-152.40000000000001
20
-3.9622667909774746e-14
30
0
11
-99.700000000000003
21
-3.9622667909774746e-14
31
0
0
LINE
5
125
100
AcDbEntity
8
0
100
AcDbLine
10
-152.40000000000001
20
-3.9622667909774746e-14
30
0
11
-124.1157287525381
21
-28.284271247461934
31
0
0
LINE
5
126
100
AcDbEntity
8
0
100
AcDbLine
10
-152.40000000000001
20
-3.9622667909774746e-14
30
0
11
-99.700000000000017
21
-3.9622667909774746e-14
31
0
0
CIRCLE
5
127
100
AcDbEntity
8
0
100
AcDbCircle
10
-152.40000000000001
20
-3.9622667909774746e-14
30
0
40
1.9500000000000002
210
0
220
0
230
1
0
CIRCLE
5
128
100
AcDbEntity
8
0
100
AcDbCircle
10
-124.1157287525381
20
28.284271247461863
30
0
40
1.9499999999999984
210
0
220
0
230
1
0
CIRCLE
5
129
100
AcDbEntity
8
0
100
AcDbCircle
10
-124.1157287525381
20
-28.284271247461934
30
0
40
1.9500000000000011
210
0
220
0
230
1
0
CIRCLE
5
130
100
AcDbEntity
8
0
100
AcDbCircle
10
152.40000000000001
20
2.0959050690769075e-14
30
0
40
1.9500000000000002
210
0
220
0
230
1
0
CIRCLE
5
131
100
AcDbEntity
8
0
100
AcDbCircle
10
124.1157287525381
20
-28.284271247461877
30
0
40
1.9499999999999984
210
0
220
0
230
1
0
CIRCLE
5
132
100
AcDbEntity
8
0
100
AcDbCircle
10
124.1157287525381
20
28.28427124746192
30
0
40
1.9500000000000011
210
0
220
0
230
1
0
ENDSEC
0
SECTION
2
OBJECTS
0
DICTIONARY
5
C
100
AcDbDictionary
3
ACAD_GROUP
350
D
3
ACAD_MLINESTYLE
350
17
0
DICTIONARY
5
D
100
AcDbDictionary
0
DICTIONARY
5
1A
330
C
100
AcDbDictionary
0
DICTIONARY
5
17
100
AcDbDictionary
0
ENDSEC
0
EOF
