0
SECTION
2
HEADER
9
$INSUNITS
70
4
9
$ACADVER
1
AC1014
9
$HANDSEED
5
FFFF
0
ENDSEC
0
SECTION
2
TABLES
0
TABLE
2
VPORT
5
8
100
AcDbSymbolTable
0
ENDTAB
0
TABLE
2
LTYPE
5
5
100
AcDbSymbolTable
0
LTYPE
5
14
100
AcDbSymbolTableRecord
100
AcDbLinetypeTableRecord
2
BYBLOCK
70
0
0
LTYPE
5
15
100
AcDbSymbolTableRecord
100
AcDbLinetypeTableRecord
2
BYLAYER
70
0
0
ENDTAB
0
TABLE
2
LAYER
5
2
100
AcDbSymbolTable
70
2
0
LAYER
5
50
100
AcDbSymbolTableRecord
100
AcDbLayerTableRecord
2
0
70
0
6
CONTINUOUS
0
ENDTAB
0
TABLE
2
STYLE
5
3
100
AcDbSymbolTable
70
1
0
STYLE
5
11
100
AcDbSymbolTableRecord
100
AcDbTextStyleTableRecord
2
STANDARD
70
0
0
ENDTAB
0
TABLE
2
VIEW
5
6
100
AcDbSymbolTable
70
0
0
ENDTAB
0
TABLE
2
UCS
5
7
100
AcDbSymbolTable
70
0
0
ENDTAB
0
TABLE
2
APPID
5
9
100
AcDbSymbolTable
70
2
0
APPID
5
12
100
AcDbSymbolTableRecord
100
AcDbRegAppTableRecord
2
ACAD
70
0
0
ENDTAB
0
TABLE
2
DIMSTYLE
5
A
100
AcDbSymbolTable
70
1
0
ENDTAB
0
TABLE
2
BLOCK_RECORD
5
1
100
AcDbSymbolTable
70
1
0
BLOCK_RECORD
5
1F
100
AcDbSymbolTableRecord
100
AcDbBlockTableRecord
2
*MODEL_SPACE
0
BLOCK_RECORD
5
1B
100
AcDbSymbolTableRecord
100
AcDbBlockTableRecord
2
*PAPER_SPACE
0
ENDTAB
0
ENDSEC
0
SECTION
2
BLOCKS
0
BLOCK
5
20
100
AcDbEntity
100
AcDbBlockBegin
2
*MODEL_SPACE
0
ENDBLK
5
21
100
AcDbEntity
100
AcDbBlockEnd
0
BLOCK
5
1C
100
AcDbEntity
100
AcDbBlockBegin
2
*PAPER_SPACE
0
ENDBLK
5
1D
100
AcDbEntity
100
AcDbBlockEnd
0
ENDSEC
0
SECTION
2
ENTITIES
0
LINE
5
100
100
AcDbEntity
8
0
100
AcDbLine
10
0
20
0
30
0
11
63.5
21
0
31
0
0
LINE
5
101
100
AcDbEntity
8
0
100
AcDbLine
10
63.5
20
0
30
0
11
63.5
21
63.5
31
0
0
LINE
5
102
100
AcDbEntity
8
0
100
AcDbLine
10
63.5
20
63.5
30
0
11
0
21
63.5
31
0
0
LINE
5
103
100
AcDbEntity
8
0
100
AcDbLine
10
0
20
63.5
30
0
11
0
21
0
31
0
0
LINE
5
104
100
AcDbEntity
8
0
100
AcDbLine
10
0
20
63.5
30
0
11
63.5
21
0
31
0
0
LINE
5
105
100
AcDbEntity
8
0
100
AcDbLine
10
31.75
20
31.75
30
0
11
35.285533905932738
21
28.214466094067259
31
0
0
LINE
5
106
100
AcDbEntity
8
0
100
AcDbLine
10
31.75
20
31.75
30
0
11
28.214466094067259
21
35.285533905932738
31
0
0
CIRCLE
5
107
100
AcDbEntity
8
0
100
AcDbCircle
10
28.214466094067259
20
35.285533905932738
30
0
40
0.95000000000000195
210
0
220
0
230
1
0
CIRCLE
5
108
100
AcDbEntity
8
0
100
AcDbCircle
10
35.285533905932738
20
28.214466094067259
30
0
40
0.95000000000000195
210
0
220
0
230
1
0
LINE
5
109
100
AcDbEntity
8
0
100
AcDbLine
10
127
20
63.5
30
0
11
63.499999999999986
21
63.5
31
0
0
LINE
5
110
100
AcDbEntity
8
0
100
AcDbLine
10
127
20
0
30
0
11
127
21
63.5
31
0
0
LINE
5
111
100
AcDbEntity
8
0
100
AcDbLine
10
190.49999999999997
20
63.5
30
0
11
126.99999999999997
21
63.5
31
0
0
LINE
5
112
100
AcDbEntity
8
0
100
AcDbLine
10
190.49999999999997
20
0
30
0
11
190.49999999999997
21
63.5
31
0
0
LINE
5
113
100
AcDbEntity
8
0
100
AcDbLine
10
254
20
63.5
30
0
11
190.49999999999997
21
63.5
31
0
0
LINE
5
114
100
AcDbEntity
8
0
100
AcDbLine
10
254
20
0
30
0
11
254
21
63.5
31
0
0
LINE
5
115
100
AcDbEntity
8
0
100
AcDbLine
10
317.49999999999994
20
63.5
30
0
11
253.99999999999994
21
63.5
31
0
0
LINE
5
116
100
AcDbEntity
8
0
100
AcDbLine
10
317.49999999999994
20
0
30
0
11
317.49999999999994
21
63.5
31
0
0
LINE
5
117
100
AcDbEntity
8
0
100
AcDbLine
10
380.99999999999994
20
63.5
30
0
11
317.49999999999994
21
63.5
31
0
0
LINE
5
118
100
AcDbEntity
8
0
100
AcDbLine
10
380.99999999999994
20
0
30
0
11
380.99999999999994
21
63.5
31
0
0
LINE
5
119
100
AcDbEntity
8
0
100
AcDbLine
10
444.49999999999994
20
63.5
30
0
11
380.99999999999994
21
63.5
31
0
0
LINE
5
120
100
AcDbEntity
8
0
100
AcDbLine
10
444.49999999999994
20
0
30
0
11
444.49999999999994
21
63.5
31
0
0
LINE
5
121
100
AcDbEntity
8
0
100
AcDbLine
10
507.99999999999989
20
63.5
30
0
11
444.49999999999989
21
63.5
31
0
0
LINE
5
122
100
AcDbEntity
8
0
100
AcDbLine
10
507.99999999999989
20
0
30
0
11
507.99999999999989
21
63.5
31
0
0
LINE
5
123
100
AcDbEntity
8
0
100
AcDbLine
10
571.49999999999989
20
63.5
30
0
11
507.99999999999989
21
63.5
31
0
0
LINE
5
124
100
AcDbEntity
8
0
100
AcDbLine
10
571.49999999999989
20
0
30
0
11
571.49999999999989
21
63.5
31
0
0
LINE
5
125
100
AcDbEntity
8
0
100
AcDbLine
10
634.99999999999989
20
63.5
30
0
11
571.49999999999989
21
63.5
31
0
0
LINE
5
126
100
AcDbEntity
8
0
100
AcDbLine
10
634.99999999999989
20
0
30
0
11
634.99999999999989
21
63.5
31
0
0
LINE
5
127
100
AcDbEntity
8
0
100
AcDbLine
10
63.5
20
127
30
0
11
0
21
127
31
0
0
LINE
5
128
100
AcDbEntity
8
0
100
AcDbLine
10
63.5
20
63.499999999999986
30
0
11
63.5
21
127
31
0
0
LINE
5
129
100
AcDbEntity
8
0
100
AcDbLine
10
127
20
127
30
0
11
63.499999999999986
21
127
31
0
0
LINE
5
130
100
AcDbEntity
8
0
100
AcDbLine
10
127
20
63.499999999999986
30
0
11
127
21
127
31
0
0
LINE
5
131
100
AcDbEntity
8
0
100
AcDbLine
10
190.49999999999997
20
127
30
0
11
126.99999999999997
21
127
31
0
0
LINE
5
132
100
AcDbEntity
8
0
100
AcDbLine
10
190.49999999999997
20
63.499999999999986
30
0
11
190.49999999999997
21
127
31
0
0
LINE
5
133
100
AcDbEntity
8
0
100
AcDbLine
10
254
20
127
30
0
11
190.49999999999997
21
127
31
0
0
LINE
5
134
100
AcDbEntity
8
0
100
AcDbLine
10
254
20
63.499999999999986
30
0
11
254
21
127
31
0
0
LINE
5
135
100
AcDbEntity
8
0
100
AcDbLine
10
317.49999999999994
20
127
30
0
11
253.99999999999994
21
127
31
0
0
LINE
5
136
100
AcDbEntity
8
0
100
AcDbLine
10
317.49999999999994
20
63.499999999999986
30
0
11
317.49999999999994
21
127
31
0
0
LINE
5
137
100
AcDbEntity
8
0
100
AcDbLine
10
380.99999999999994
20
127
30
0
11
317.49999999999994
21
127
31
0
0
LINE
5
138
100
AcDbEntity
8
0
100
AcDbLine
10
380.99999999999994
20
63.499999999999986
30
0
11
380.99999999999994
21
127
31
0
0
LINE
5
139
100
AcDbEntity
8
0
100
AcDbLine
10
444.49999999999994
20
127
30
0
11
380.99999999999994
21
127
31
0
0
LINE
5
140
100
AcDbEntity
8
0
100
AcDbLine
10
444.49999999999994
20
63.499999999999986
30
0
11
444.49999999999994
21
127
31
0
0
LINE
5
141
100
AcDbEntity
8
0
100
AcDbLine
10
507.99999999999989
20
127
30
0
11
444.49999999999989
21
127
31
0
0
LINE
5
142
100
AcDbEntity
8
0
100
AcDbLine
10
507.99999999999989
20
63.499999999999986
30
0
11
507.99999999999989
21
127
31
0
0
LINE
5
143
100
AcDbEntity
8
0
100
AcDbLine
10
571.49999999999989
20
127
30
0
11
507.99999999999989
21
127
31
0
0
LINE
5
144
100
AcDbEntity
8
0
100
AcDbLine
10
571.49999999999989
20
63.499999999999986
30
0
11
571.49999999999989
21
127
31
0
0
LINE
5
145
100
AcDbEntity
8
0
100
AcDbLine
10
634.99999999999989
20
127
30
0
11
571.49999999999989
21
127
31
0
0
LINE
5
146
100
AcDbEntity
8
0
100
AcDbLine
10
634.99999999999989
20
63.499999999999986
30
0
11
634.99999999999989
21
127
31
0
0
LINE
5
147
100
AcDbEntity
8
0
100
AcDbLine
10
63.5
20
190.49999999999997
30
0
11
0
21
190.49999999999997
31
0
0
LINE
5
148
100
AcDbEntity
8
0
100
AcDbLine
10
63.5
20
126.99999999999997
30
0
11
63.5
21
190.49999999999997
31
0
0
LINE
5
149
100
AcDbEntity
8
0
100
AcDbLine
10
127
20
190.49999999999997
30
0
11
63.499999999999986
21
190.49999999999997
31
0
0
LINE
5
150
100
AcDbEntity
8
0
100
AcDbLine
10
127
20
126.99999999999997
30
0
11
127
21
190.49999999999997
31
0
0
LINE
5
151
100
AcDbEntity
8
0
100
AcDbLine
10
190.49999999999997
20
190.49999999999997
30
0
11
126.99999999999997
21
190.49999999999997
31
0
0
LINE
5
152
100
AcDbEntity
8
0
100
AcDbLine
10
190.49999999999997
20
126.99999999999997
30
0
11
190.49999999999997
21
190.49999999999997
31
0
0
LINE
5
153
100
AcDbEntity
8
0
100
AcDbLine
10
254
20
190.49999999999997
30
0
11
190.49999999999997
21
190.49999999999997
31
0
0
LINE
5
154
100
AcDbEntity
8
0
100
AcDbLine
10
254
20
126.99999999999997
30
0
11
254
21
190.49999999999997
31
0
0
LINE
5
155
100
AcDbEntity
8
0
100
AcDbLine
10
317.49999999999994
20
190.49999999999997
30
0
11
253.99999999999994
21
190.49999999999997
31
0
0
LINE
5
156
100
AcDbEntity
8
0
100
AcDbLine
10
317.49999999999994
20
126.99999999999997
30
0
11
317.49999999999994
21
190.49999999999997
31
0
0
LINE
5
157
100
AcDbEntity
8
0
100
AcDbLine
10
380.99999999999994
20
190.49999999999997
30
0
11
317.49999999999994
21
190.49999999999997
31
0
0
LINE
5
158
100
AcDbEntity
8
0
100
AcDbLine
10
380.99999999999994
20
126.99999999999997
30
0
11
380.99999999999994
21
190.49999999999997
31
0
0
LINE
5
159
100
AcDbEntity
8
0
100
AcDbLine
10
444.49999999999994
20
190.49999999999997
30
0
11
380.99999999999994
21
190.49999999999997
31
0
0
LINE
5
160
100
AcDbEntity
8
0
100
AcDbLine
10
444.49999999999994
20
126.99999999999997
30
0
11
444.49999999999994
21
190.49999999999997
31
0
0
LINE
5
161
100
AcDbEntity
8
0
100
AcDbLine
10
507.99999999999989
20
190.49999999999997
30
0
11
444.49999999999989
21
190.49999999999997
31
0
0
LINE
5
162
100
AcDbEntity
8
0
100
AcDbLine
10
507.99999999999989
20
126.99999999999997
30
0
11
507.99999999999989
21
190.49999999999997
31
0
0
LINE
5
163
100
AcDbEntity
8
0
100
AcDbLine
10
571.49999999999989
20
190.49999999999997
30
0
11
507.99999999999989
21
190.49999999999997
31
0
0
LINE
5
164
100
AcDbEntity
8
0
100
AcDbLine
10
571.49999999999989
20
126.99999999999997
30
0
11
571.49999999999989
21
190.49999999999997
31
0
0
LINE
5
165
100
AcDbEntity
8
0
100
AcDbLine
10
634.99999999999989
20
190.49999999999997
30
0
11
571.49999999999989
21
190.49999999999997
31
0
0
LINE
5
166
100
AcDbEntity
8
0
100
AcDbLine
10
634.99999999999989
20
126.99999999999997
30
0
11
634.99999999999989
21
190.49999999999997
31
0
0
LINE
5
167
100
AcDbEntity
8
0
100
AcDbLine
10
63.5
20
254
30
0
11
0
21
254
31
0
0
LINE
5
168
100
AcDbEntity
8
0
100
AcDbLine
10
63.5
20
190.49999999999997
30
0
11
63.5
21
254
31
0
0
LINE
5
169
100
AcDbEntity
8
0
100
AcDbLine
10
127
20
254
30
0
11
63.499999999999986
21
254
31
0
0
LINE
5
170
100
AcDbEntity
8
0
100
AcDbLine
10
127
20
190.49999999999997
30
0
11
127
21
254
31
0
0
LINE
5
171
100
AcDbEntity
8
0
100
AcDbLine
10
190.49999999999997
20
254
30
0
11
126.99999999999997
21
254
31
0
0
LINE
5
172
100
AcDbEntity
8
0
100
AcDbLine
10
190.49999999999997
20
190.49999999999997
30
0
11
190.49999999999997
21
254
31
0
0
LINE
5
173
100
AcDbEntity
8
0
100
AcDbLine
10
254
20
254
30
0
11
190.49999999999997
21
254
31
0
0
LINE
5
174
100
AcDbEntity
8
0
100
AcDbLine
10
254
20
190.49999999999997
30
0
11
254
21
254
31
0
0
LINE
5
175
100
AcDbEntity
8
0
100
AcDbLine
10
317.49999999999994
20
254
30
0
11
253.99999999999994
21
254
31
0
0
LINE
5
176
100
AcDbEntity
8
0
100
AcDbLine
10
317.49999999999994
20
190.49999999999997
30
0
11
317.49999999999994
21
254
31
0
0
LINE
5
177
100
AcDbEntity
8
0
100
AcDbLine
10
380.99999999999994
20
254
30
0
11
317.49999999999994
21
254
31
0
0
LINE
5
178
100
AcDbEntity
8
0
100
AcDbLine
10
380.99999999999994
20
190.49999999999997
30
0
11
380.99999999999994
21
254
31
0
0
LINE
5
179
100
AcDbEntity
8
0
100
AcDbLine
10
444.49999999999994
20
254
30
0
11
380.99999999999994
21
254
31
0
0
LINE
5
180
100
AcDbEntity
8
0
100
AcDbLine
10
444.49999999999994
20
190.49999999999997
30
0
11
444.49999999999994
21
254
31
0
0
LINE
5
181
100
AcDbEntity
8
0
100
AcDbLine
10
507.99999999999989
20
254
30
0
11
444.49999999999989
21
254
31
0
0
LINE
5
182
100
AcDbEntity
8
0
100
AcDbLine
10
507.99999999999989
20
190.49999999999997
30
0
11
507.99999999999989
21
254
31
0
0
LINE
5
183
100
AcDbEntity
8
0
100
AcDbLine
10
571.49999999999989
20
254
30
0
11
507.99999999999989
21
254
31
0
0
LINE
5
184
100
AcDbEntity
8
0
100
AcDbLine
10
571.49999999999989
20
190.49999999999997
30
0
11
571.49999999999989
21
254
31
0
0
LINE
5
185
100
AcDbEntity
8
0
100
AcDbLine
10
634.99999999999989
20
254
30
0
11
571.49999999999989
21
254
31
0
0
LINE
5
186
100
AcDbEntity
8
0
100
AcDbLine
10
634.99999999999989
20
190.49999999999997
30
0
11
634.99999999999989
21
254
31
0
0
LINE
5
187
100
AcDbEntity
8
0
100
AcDbLine
10
63.5
20
317.49999999999994
30
0
11
0
21
317.49999999999994
31
0
0
LINE
5
188
100
AcDbEntity
8
0
100
AcDbLine
10
63.5
20
253.99999999999994
30
0
11
63.5
21
317.49999999999994
31
0
0
LINE
5
189
100
AcDbEntity
8
0
100
AcDbLine
10
127
20
317.49999999999994
30
0
11
63.499999999999986
21
317.49999999999994
31
0
0
LINE
5
190
100
AcDbEntity
8
0
100
AcDbLine
10
127
20
253.99999999999994
30
0
11
127
21
317.49999999999994
31
0
0
LINE
5
191
100
AcDbEntity
8
0
100
AcDbLine
10
190.49999999999997
20
317.49999999999994
30
0
11
126.99999999999997
21
317.49999999999994
31
0
0
LINE
5
192
100
AcDbEntity
8
0
100
AcDbLine
10
190.49999999999997
20
253.99999999999994
30
0
11
190.49999999999997
21
317.49999999999994
31
0
0
LINE
5
193
100
AcDbEntity
8
0
100
AcDbLine
10
254
20
317.49999999999994
30
0
11
190.49999999999997
21
317.49999999999994
31
0
0
LINE
5
194
100
AcDbEntity
8
0
100
AcDbLine
10
254
20
253.99999999999994
30
0
11
254
21
317.49999999999994
31
0
0
LINE
5
195
100
AcDbEntity
8
0
100
AcDbLine
10
317.49999999999994
20
317.49999999999994
30
0
11
253.99999999999994
21
317.49999999999994
31
0
0
LINE
5
196
100
AcDbEntity
8
0
100
AcDbLine
10
317.49999999999994
20
253.99999999999994
30
0
11
317.49999999999994
21
317.49999999999994
31
0
0
LINE
5
197
100
AcDbEntity
8
0
100
AcDbLine
10
380.99999999999994
20
317.49999999999994
30
0
11
317.49999999999994
21
317.49999999999994
31
0
0
LINE
5
198
100
AcDbEntity
8
0
100
AcDbLine
10
380.99999999999994
20
253.99999999999994
30
0
11
380.99999999999994
21
317.49999999999994
31
0
0
LINE
5
199
100
AcDbEntity
8
0
100
AcDbLine
10
444.49999999999994
20
317.49999999999994
30
0
11
380.99999999999994
21
317.49999999999994
31
0
0
LINE
5
200
100
AcDbEntity
8
0
100
AcDbLine
10
444.49999999999994
20
253.99999999999994
30
0
11
444.49999999999994
21
317.49999999999994
31
0
0
LINE
5
201
100
AcDbEntity
8
0
100
AcDbLine
10
507.99999999999989
20
317.49999999999994
30
0
11
444.49999999999989
21
317.49999999999994
31
0
0
LINE
5
202
100
AcDbEntity
8
0
100
AcDbLine
10
507.99999999999989
20
253.99999999999994
30
0
11
507.99999999999989
21
317.49999999999994
31
0
0
LINE
5
203
100
AcDbEntity
8
0
100
AcDbLine
10
571.49999999999989
20
317.49999999999994
30
0
11
507.99999999999989
21
317.49999999999994
31
0
0
LINE
5
204
100
AcDbEntity
8
0
100
AcDbLine
10
571.49999999999989
20
253.99999999999994
30
0
11
571.49999999999989
21
317.49999999999994
31
0
0
LINE
5
205
100
AcDbEntity
8
0
100
AcDbLine
10
634.99999999999989
20
317.49999999999994
30
0
11
571.49999999999989
21
317.49999999999994
31
0
0
LINE
5
206
100
AcDbEntity
8
0
100
AcDbLine
10
634.99999999999989
20
253.99999999999994
30
0
11
634.99999999999989
21
317.49999999999994
31
0
0
LINE
5
207
100
AcDbEntity
8
0
100
AcDbLine
10
63.5
20
380.99999999999994
30
0
11
0
21
380.99999999999994
31
0
0
LINE
5
208
100
AcDbEntity
8
0
100
AcDbLine
10
63.5
20
317.49999999999994
30
0
11
63.5
21
380.99999999999994
31
0
0
LINE
5
209
100
AcDbEntity
8
0
100
AcDbLine
10
127
20
380.99999999999994
30
0
11
63.499999999999986
21
380.99999999999994
31
0
0
LINE
5
210
100
AcDbEntity
8
0
100
AcDbLine
10
127
20
317.49999999999994
30
0
11
127
21
380.99999999999994
31
0
0
LINE
5
211
100
AcDbEntity
8
0
100
AcDbLine
10
190.49999999999997
20
380.99999999999994
30
0
11
126.99999999999997
21
380.99999999999994
31
0
0
LINE
5
212
100
AcDbEntity
8
0
100
AcDbLine
10
190.49999999999997
20
317.49999999999994
30
0
11
190.49999999999997
21
380.99999999999994
31
0
0
LINE
5
213
100
AcDbEntity
8
0
100
AcDbLine
10
254
20
380.99999999999994
30
0
11
190.49999999999997
21
380.99999999999994
31
0
0
LINE
5
214
100
AcDbEntity
8
0
100
AcDbLine
10
254
20
317.49999999999994
30
0
11
254
21
380.99999999999994
31
0
0
LINE
5
215
100
AcDbEntity
8
0
100
AcDbLine
10
317.49999999999994
20
380.99999999999994
30
0
11
253.99999999999994
21
380.99999999999994
31
0
0
LINE
5
216
100
AcDbEntity
8
0
100
AcDbLine
10
317.49999999999994
20
317.49999999999994
30
0
11
317.49999999999994
21
380.99999999999994
31
0
0
LINE
5
217
100
AcDbEntity
8
0
100
AcDbLine
10
380.99999999999994
20
380.99999999999994
30
0
11
317.49999999999994
21
380.99999999999994
31
0
0
LINE
5
218
100
AcDbEntity
8
0
100
AcDbLine
10
380.99999999999994
20
317.49999999999994
30
0
11
380.99999999999994
21
380.99999999999994
31
0
0
LINE
5
219
100
AcDbEntity
8
0
100
AcDbLine
10
444.49999999999994
20
380.99999999999994
30
0
11
380.99999999999994
21
380.99999999999994
31
0
0
LINE
5
220
100
AcDbEntity
8
0
100
AcDbLine
10
444.49999999999994
20
317.49999999999994
30
0
11
444.49999999999994
21
380.99999999999994
31
0
0
LINE
5
221
100
AcDbEntity
8
0
100
AcDbLine
10
507.99999999999989
20
380.99999999999994
30
0
11
444.49999999999989
21
380.99999999999994
31
0
0
LINE
5
222
100
AcDbEntity
8
0
100
AcDbLine
10
507.99999999999989
20
317.49999999999994
30
0
11
507.99999999999989
21
380.99999999999994
31
0
0
LINE
5
223
100
AcDbEntity
8
0
100
AcDbLine
10
571.49999999999989
20
380.99999999999994
30
0
11
507.99999999999989
21
380.99999999999994
31
0
0
LINE
5
224
100
AcDbEntity
8
0
100
AcDbLine
10
571.49999999999989
20
317.49999999999994
30
0
11
571.49999999999989
21
380.99999999999994
31
0
0
LINE
5
225
100
AcDbEntity
8
0
100
AcDbLine
10
634.99999999999989
20
380.99999999999994
30
0
11
571.49999999999989
21
380.99999999999994
31
0
0
LINE
5
226
100
AcDbEntity
8
0
100
AcDbLine
10
634.99999999999989
20
317.49999999999994
30
0
11
634.99999999999989
21
380.99999999999994
31
0
0
LINE
5
227
100
AcDbEntity
8
0
100
AcDbLine
10
63.5
20
444.49999999999994
30
0
11
0
21
444.49999999999994
31
0
0
LINE
5
228
100
AcDbEntity
8
0
100
AcDbLine
10
63.5
20
380.99999999999994
30
0
11
63.5
21
444.49999999999994
31
0
0
LINE
5
229
100
AcDbEntity
8
0
100
AcDbLine
10
127
20
444.49999999999994
30
0
11
63.499999999999986
21
444.49999999999994
31
0
0
LINE
5
230
100
AcDbEntity
8
0
100
AcDbLine
10
127
20
380.99999999999994
30
0
11
127
21
444.49999999999994
31
0
0
LINE
5
231
100
AcDbEntity
8
0
100
AcDbLine
10
190.49999999999997
20
444.49999999999994
30
0
11
126.99999999999997
21
444.49999999999994
31
0
0
LINE
5
232
100
AcDbEntity
8
0
100
AcDbLine
10
190.49999999999997
20
380.99999999999994
30
0
11
190.49999999999997
21
444.49999999999994
31
0
0
LINE
5
233
100
AcDbEntity
8
0
100
AcDbLine
10
254
20
444.49999999999994
30
0
11
190.49999999999997
21
444.49999999999994
31
0
0
LINE
5
234
100
AcDbEntity
8
0
100
AcDbLine
10
254
20
380.99999999999994
30
0
11
254
21
444.49999999999994
31
0
0
LINE
5
235
100
AcDbEntity
8
0
100
AcDbLine
10
317.49999999999994
20
444.49999999999994
30
0
11
253.99999999999994
21
444.49999999999994
31
0
0
LINE
5
236
100
AcDbEntity
8
0
100
AcDbLine
10
317.49999999999994
20
380.99999999999994
30
0
11
317.49999999999994
21
444.49999999999994
31
0
0
LINE
5
237
100
AcDbEntity
8
0
100
AcDbLine
10
380.99999999999994
20
444.49999999999994
30
0
11
317.49999999999994
21
444.49999999999994
31
0
0
LINE
5
238
100
AcDbEntity
8
0
100
AcDbLine
10
380.99999999999994
20
380.99999999999994
30
0
11
380.99999999999994
21
444.49999999999994
31
0
0
LINE
5
239
100
AcDbEntity
8
0
100
AcDbLine
10
444.49999999999994
20
444.49999999999994
30
0
11
380.99999999999994
21
444.49999999999994
31
0
0
LINE
5
240
100
AcDbEntity
8
0
100
AcDbLine
10
444.49999999999994
20
380.99999999999994
30
0
11
444.49999999999994
21
444.49999999999994
31
0
0
LINE
5
241
100
AcDbEntity
8
0
100
AcDbLine
10
507.99999999999989
20
444.49999999999994
30
0
11
444.49999999999989
21
444.49999999999994
31
0
0
LINE
5
242
100
AcDbEntity
8
0
100
AcDbLine
10
507.99999999999989
20
380.99999999999994
30
0
11
507.99999999999989
21
444.49999999999994
31
0
0
LINE
5
243
100
AcDbEntity
8
0
100
AcDbLine
10
571.49999999999989
20
444.49999999999994
30
0
11
507.99999999999989
21
444.49999999999994
31
0
0
LINE
5
244
100
AcDbEntity
8
0
100
AcDbLine
10
571.49999999999989
20
380.99999999999994
30
0
11
571.49999999999989
21
444.49999999999994
31
0
0
LINE
5
245
100
AcDbEntity
8
0
100
AcDbLine
10
634.99999999999989
20
444.49999999999994
30
0
11
571.49999999999989
21
444.49999999999994
31
0
0
LINE
5
246
100
AcDbEntity
8
0
100
AcDbLine
10
634.99999999999989
20
380.99999999999994
30
0
11
634.99999999999989
21
444.49999999999994
31
0
0
LINE
5
247
100
AcDbEntity
8
0
100
AcDbLine
10
63.5
20
507.99999999999989
30
0
11
0
21
507.99999999999989
31
0
0
LINE
5
248
100
AcDbEntity
8
0
100
AcDbLine
10
63.5
20
444.49999999999989
30
0
11
63.5
21
507.99999999999989
31
0
0
LINE
5
249
100
AcDbEntity
8
0
100
AcDbLine
10
127
20
507.99999999999989
30
0
11
63.499999999999986
21
507.99999999999989
31
0
0
LINE
5
250
100
AcDbEntity
8
0
100
AcDbLine
10
127
20
444.49999999999989
30
0
11
127
21
507.99999999999989
31
0
0
LINE
5
251
100
AcDbEntity
8
0
100
AcDbLine
10
190.49999999999997
20
507.99999999999989
30
0
11
126.99999999999997
21
507.99999999999989
31
0
0
LINE
5
252
100
AcDbEntity
8
0
100
AcDbLine
10
190.49999999999997
20
444.49999999999989
30
0
11
190.49999999999997
21
507.99999999999989
31
0
0
LINE
5
253
100
AcDbEntity
8
0
100
AcDbLine
10
254
20
507.99999999999989
30
0
11
190.49999999999997
21
507.99999999999989
31
0
0
LINE
5
254
100
AcDbEntity
8
0
100
AcDbLine
10
254
20
444.49999999999989
30
0
11
254
21
507.99999999999989
31
0
0
LINE
5
255
100
AcDbEntity
8
0
100
AcDbLine
10
317.49999999999994
20
507.99999999999989
30
0
11
253.99999999999994
21
507.99999999999989
31
0
0
LINE
5
256
100
AcDbEntity
8
0
100
AcDbLine
10
317.49999999999994
20
444.49999999999989
30
0
11
317.49999999999994
21
507.99999999999989
31
0
0
LINE
5
257
100
AcDbEntity
8
0
100
AcDbLine
10
380.99999999999994
20
507.99999999999989
30
0
11
317.49999999999994
21
507.99999999999989
31
0
0
LINE
5
258
100
AcDbEntity
8
0
100
AcDbLine
10
380.99999999999994
20
444.49999999999989
30
0
11
380.99999999999994
21
507.99999999999989
31
0
0
LINE
5
259
100
AcDbEntity
8
0
100
AcDbLine
10
444.49999999999994
20
507.99999999999989
30
0
11
380.99999999999994
21
507.99999999999989
31
0
0
LINE
5
260
100
AcDbEntity
8
0
100
AcDbLine
10
444.49999999999994
20
444.49999999999989
30
0
11
444.49999999999994
21
507.99999999999989
31
0
0
LINE
5
261
100
AcDbEntity
8
0
100
AcDbLine
10
507.99999999999989
20
507.99999999999989
30
0
11
444.49999999999989
21
507.99999999999989
31
0
0
LINE
5
262
100
AcDbEntity
8
0
100
AcDbLine
10
507.99999999999989
20
444.49999999999989
30
0
11
507.99999999999989
21
507.99999999999989
31
0
0
LINE
5
263
100
AcDbEntity
8
0
100
AcDbLine
10
571.49999999999989
20
507.99999999999989
30
0
11
507.99999999999989
21
507.99999999999989
31
0
0
LINE
5
264
100
AcDbEntity
8
0
100
AcDbLine
10
571.49999999999989
20
444.49999999999989
30
0
11
571.49999999999989
21
507.99999999999989
31
0
0
LINE
5
265
100
AcDbEntity
8
0
100
AcDbLine
10
634.99999999999989
20
507.99999999999989
30
0
11
571.49999999999989
21
507.99999999999989
31
0
0
LINE
5
266
100
AcDbEntity
8
0
100
AcDbLine
10
634.99999999999989
20
444.49999999999989
30
0
11
634.99999999999989
21
507.99999999999989
31
0
0
LINE
5
267
100
AcDbEntity
8
0
100
AcDbLine
10
63.5
20
571.49999999999989
30
0
11
0
21
571.49999999999989
31
0
0
LINE
5
268
100
AcDbEntity
8
0
100
AcDbLine
10
63.5
20
507.99999999999989
30
0
11
63.5
21
571.49999999999989
31
0
0
LINE
5
269
100
AcDbEntity
8
0
100
AcDbLine
10
127
20
571.49999999999989
30
0
11
63.499999999999986
21
571.49999999999989
31
0
0
LINE
5
270
100
AcDbEntity
8
0
100
AcDbLine
10
127
20
507.99999999999989
30
0
11
127
21
571.49999999999989
31
0
0
LINE
5
271
100
AcDbEntity
8
0
100
AcDbLine
10
190.49999999999997
20
571.49999999999989
30
0
11
126.99999999999997
21
571.49999999999989
31
0
0
LINE
5
272
100
AcDbEntity
8
0
100
AcDbLine
10
190.49999999999997
20
507.99999999999989
30
0
11
190.49999999999997
21
571.49999999999989
31
0
0
LINE
5
273
100
AcDbEntity
8
0
100
AcDbLine
10
254
20
571.49999999999989
30
0
11
190.49999999999997
21
571.49999999999989
31
0
0
LINE
5
274
100
AcDbEntity
8
0
100
AcDbLine
10
254
20
507.99999999999989
30
0
11
254
21
571.49999999999989
31
0
0
LINE
5
275
100
AcDbEntity
8
0
100
AcDbLine
10
317.49999999999994
20
571.49999999999989
30
0
11
253.99999999999994
21
571.49999999999989
31
0
0
LINE
5
276
100
AcDbEntity
8
0
100
AcDbLine
10
317.49999999999994
20
507.99999999999989
30
0
11
317.49999999999994
21
571.49999999999989
31
0
0
LINE
5
277
100
AcDbEntity
8
0
100
AcDbLine
10
380.99999999999994
20
571.49999999999989
30
0
11
317.49999999999994
21
571.49999999999989
31
0
0
LINE
5
278
100
AcDbEntity
8
0
100
AcDbLine
10
380.99999999999994
20
507.99999999999989
30
0
11
380.99999999999994
21
571.49999999999989
31
0
0
LINE
5
279
100
AcDbEntity
8
0
100
AcDbLine
10
444.49999999999994
20
571.49999999999989
30
0
11
380.99999999999994
21
571.49999999999989
31
0
0
LINE
5
280
100
AcDbEntity
8
0
100
AcDbLine
10
444.49999999999994
20
507.99999999999989
30
0
11
444.49999999999994
21
571.49999999999989
31
0
0
LINE
5
281
100
AcDbEntity
8
0
100
AcDbLine
10
507.99999999999989
20
571.49999999999989
30
0
11
444.49999999999989
21
571.49999999999989
31
0
0
LINE
5
282
100
AcDbEntity
8
0
100
AcDbLine
10
507.99999999999989
20
507.99999999999989
30
0
11
507.99999999999989
21
571.49999999999989
31
0
0
LINE
5
283
100
AcDbEntity
8
0
100
AcDbLine
10
571.49999999999989
20
571.49999999999989
30
0
11
507.99999999999989
21
571.49999999999989
31
0
0
LINE
5
284
100
AcDbEntity
8
0
100
AcDbLine
10
571.49999999999989
20
507.99999999999989
30
0
11
571.49999999999989
21
571.49999999999989
31
0
0
LINE
5
285
100
AcDbEntity
8
0
100
AcDbLine
10
634.99999999999989
20
571.49999999999989
30
0
11
571.49999999999989
21
571.49999999999989
31
0
0
LINE
5
286
100
AcDbEntity
8
0
100
AcDbLine
10
634.99999999999989
20
507.99999999999989
30
0
11
634.99999999999989
21
571.49999999999989
31
0
0
LINE
5
287
100
AcDbEntity
8
0
100
AcDbLine
10
63.5
20
634.99999999999989
30
0
11
0
21
634.99999999999989
31
0
0
LINE
5
288
100
AcDbEntity
8
0
100
AcDbLine
10
63.5
20
571.49999999999989
30
0
11
63.5
21
634.99999999999989
31
0
0
LINE
5
289
100
AcDbEntity
8
0
100
AcDbLine
10
127
20
634.99999999999989
30
0
11
63.499999999999986
21
634.99999999999989
31
0
0
LINE
5
290
100
AcDbEntity
8
0
100
AcDbLine
10
127
20
571.49999999999989
30
0
11
127
21
634.99999999999989
31
0
0
LINE
5
291
100
AcDbEntity
8
0
100
AcDbLine
10
190.49999999999997
20
634.99999999999989
30
0
11
126.99999999999997
21
634.99999999999989
31
0
0
LINE
5
292
100
AcDbEntity
8
0
100
AcDbLine
10
190.49999999999997
20
571.49999999999989
30
0
11
190.49999999999997
21
634.99999999999989
31
0
0
LINE
5
293
100
AcDbEntity
8
0
100
AcDbLine
10
254
20
634.99999999999989
30
0
11
190.49999999999997
21
634.99999999999989
31
0
0
LINE
5
294
100
AcDbEntity
8
0
100
AcDbLine
10
254
20
571.49999999999989
30
0
11
254
21
634.99999999999989
31
0
0
LINE
5
295
100
AcDbEntity
8
0
100
AcDbLine
10
317.49999999999994
20
634.99999999999989
30
0
11
253.99999999999994
21
634.99999999999989
31
0
0
LINE
5
296
100
AcDbEntity
8
0
100
AcDbLine
10
317.49999999999994
20
571.49999999999989
30
0
11
317.49999999999994
21
634.99999999999989
31
0
0
LINE
5
297
100
AcDbEntity
8
0
100
AcDbLine
10
380.99999999999994
20
634.99999999999989
30
0
11
317.49999999999994
21
634.99999999999989
31
0
0
LINE
5
298
100
AcDbEntity
8
0
100
AcDbLine
10
380.99999999999994
20
571.49999999999989
30
0
11
380.99999999999994
21
634.99999999999989
31
0
0
LINE
5
299
100
AcDbEntity
8
0
100
AcDbLine
10
444.49999999999994
20
634.99999999999989
30
0
11
380.99999999999994
21
634.99999999999989
31
0
0
LINE
5
300
100
AcDbEntity
8
0
100
AcDbLine
10
444.49999999999994
20
571.49999999999989
30
0
11
444.49999999999994
21
634.99999999999989
31
0
0
LINE
5
301
100
AcDbEntity
8
0
100
AcDbLine
10
507.99999999999989
20
634.99999999999989
30
0
11
444.49999999999989
21
634.99999999999989
31
0
0
LINE
5
302
100
AcDbEntity
8
0
100
AcDbLine
10
507.99999999999989
20
571.49999999999989
30
0
11
507.99999999999989
21
634.99999999999989
31
0
0
LINE
5
303
100
AcDbEntity
8
0
100
AcDbLine
10
571.49999999999989
20
634.99999999999989
30
0
11
507.99999999999989
21
634.99999999999989
31
0
0
LINE
5
304
100
AcDbEntity
8
0
100
AcDbLine
10
571.49999999999989
20
571.49999999999989
30
0
11
571.49999999999989
21
634.99999999999989
31
0
0
LINE
5
305
100
AcDbEntity
8
0
100
AcDbLine
10
634.99999999999989
20
634.99999999999989
30
0
11
571.49999999999989
21
634.99999999999989
31
0
0
LINE
5
306
100
AcDbEntity
8
0
100
AcDbLine
10
634.99999999999989
20
571.49999999999989
30
0
11
634.99999999999989
21
634.99999999999989
31
0
0
CIRCLE
5
307
100
AcDbEntity
8
0
100
AcDbCircle
10
98.785533905932709
20
28.214466094067259
30
0
40
0.95000000000000195
210
0
220
0
230
1
0
CIRCLE
5
308
100
AcDbEntity
8
0
100
AcDbCircle
10
91.714466094067262
20
35.285533905932738
30
0
40
0.95000000000000195
210
0
220
0
230
1
0
CIRCLE
5
309
100
AcDbEntity
8
0
100
AcDbCircle
10
162.28553390593271
20
28.214466094067259
30
0
40
0.95000000000000195
210
0
220
0
230
1
0
CIRCLE
5
310
100
AcDbEntity
8
0
100
AcDbCircle
10
155.21446609406723
20
35.285533905932738
30
0
40
0.95000000000000195
210
0
220
0
230
1
0
CIRCLE
5
311
100
AcDbEntity
8
0
100
AcDbCircle
10
225.78553390593271
20
28.214466094067259
30
0
40
0.95000000000000195
210
0
220
0
230
1
0
CIRCLE
5
312
100
AcDbEntity
8
0
100
AcDbCircle
10
218.71446609406723
20
35.285533905932738
30
0
40
0.95000000000000195
210
0
220
0
230
1
0
CIRCLE
5
313
100
AcDbEntity
8
0
100
AcDbCircle
10
289.28553390593271
20
28.214466094067259
30
0
40
0.95000000000000195
210
0
220
0
230
1
0
CIRCLE
5
314
100
AcDbEntity
8
0
100
AcDbCircle
10
282.21446609406718
20
35.285533905932738
30
0
40
0.95000000000000195
210
0
220
0
230
1
0
CIRCLE
5
315
100
AcDbEntity
8
0
100
AcDbCircle
10
352.78553390593265
20
28.214466094067259
30
0
40
0.95000000000000195
210
0
220
0
230
1
0
CIRCLE
5
316
100
AcDbEntity
8
0
100
AcDbCircle
10
345.71446609406723
20
35.285533905932738
30
0
40
0.95000000000000195
210
0
220
0
230
1
0
CIRCLE
5
317
100
AcDbEntity
8
0
100
AcDbCircle
10
416.28553390593265
20
28.214466094067259
30
0
40
0.95000000000000195
210
0
220
0
230
1
0
CIRCLE
5
318
100
AcDbEntity
8
0
100
AcDbCircle
10
409.21446609406723
20
35.285533905932738
30
0
40
0.95000000000000195
210
0
220
0
230
1
0
CIRCLE
5
319
100
AcDbEntity
8
0
100
AcDbCircle
10
479.78553390593265
20
28.214466094067259
30
0
40
0.95000000000000195
210
0
220
0
230
1
0
CIRCLE
5
320
100
AcDbEntity
8
0
100
AcDbCircle
10
472.71446609406718
20
35.285533905932738
30
0
40
0.95000000000000195
210
0
220
0
230
1
0
CIRCLE
5
321
100
AcDbEntity
8
0
100
AcDbCircle
10
543.28553390593265
20
28.214466094067259
30
0
40
0.95000000000000195
210
0
220
0
230
1
0
CIRCLE
5
322
100
AcDbEntity
8
0
100
AcDbCircle
10
536.21446609406712
20
35.285533905932738
30
0
40
0.95000000000000195
210
0
220
0
230
1
0
CIRCLE
5
323
100
AcDbEntity
8
0
100
AcDbCircle
10
606.78553390593265
20
28.214466094067259
30
0
40
0.95000000000000195
210
0
220
0
230
1
0
CIRCLE
5
324
100
AcDbEntity
8
0
100
AcDbCircle
10
599.71446609406723
20
35.285533905932738
30
0
40
0.95000000000000195
210
0
220
0
230
1
0
CIRCLE
5
325
100
AcDbEntity
8
0
100
AcDbCircle
10
35.285533905932738
20
91.714466094067262
30
0
40
0.95000000000000195
210
0
220
0
230
1
0
CIRCLE
5
326
100
AcDbEntity
8
0
100
AcDbCircle
10
28.214466094067259
20
98.785533905932709
30
0
40
0.95000000000000195
210
0
220
0
230
1
0
CIRCLE
5
327
100
AcDbEntity
8
0
100
AcDbCircle
10
98.785533905932709
20
91.714466094067262
30
0
40
0.95000000000000195
210
0
220
0
230
1
0
CIRCLE
5
328
100
AcDbEntity
8
0
100
AcDbCircle
10
91.714466094067262
20
98.785533905932709
30
0
40
0.95000000000000195
210
0
220
0
230
1
0
CIRCLE
5
329
100
AcDbEntity
8
0
100
AcDbCircle
10
162.28553390593271
20
91.714466094067262
30
0
40
0.95000000000000195
210
0
220
0
230
1
0
CIRCLE
5
330
100
AcDbEntity
8
0
100
AcDbCircle
10
155.21446609406723
20
98.785533905932709
30
0
40
0.95000000000000195
210
0
220
0
230
1
0
CIRCLE
5
331
100
AcDbEntity
8
0
100
AcDbCircle
10
225.78553390593271
20
91.714466094067262
30
0
40
0.95000000000000195
210
0
220
0
230
1
0
CIRCLE
5
332
100
AcDbEntity
8
0
100
AcDbCircle
10
218.71446609406723
20
98.785533905932709
30
0
40
0.95000000000000195
210
0
220
0
230
1
0
CIRCLE
5
333
100
AcDbEntity
8
0
100
AcDbCircle
10
289.28553390593271
20
91.714466094067262
30
0
40
0.95000000000000195
210
0
220
0
230
1
0
CIRCLE
5
334
100
AcDbEntity
8
0
100
AcDbCircle
10
282.21446609406718
20
98.785533905932709
30
0
40
0.95000000000000195
210
0
220
0
230
1
0
CIRCLE
5
335
100
AcDbEntity
8
0
100
AcDbCircle
10
352.78553390593265
20
91.714466094067262
30
0
40
0.95000000000000195
210
0
220
0
230
1
0
CIRCLE
5
336
100
AcDbEntity
8
0
100
AcDbCircle
10
345.71446609406723
20
98.785533905932709
30
0
40
0.95000000000000195
210
0
220
0
230
1
0
CIRCLE
5
337
100
AcDbEntity
8
0
100
AcDbCircle
10
416.28553390593265
20
91.714466094067262
30
0
40
0.95000000000000195
210
0
220
0
230
1
0
CIRCLE
5
338
100
AcDbEntity
8
0
100
AcDbCircle
10
409.21446609406723
20
98.785533905932709
30
0
40
0.95000000000000195
210
0
220
0
230
1
0
CIRCLE
5
339
100
AcDbEntity
8
0
100
AcDbCircle
10
479.78553390593265
20
91.714466094067262
30
0
40
0.95000000000000195
210
0
220
0
230
1
0
CIRCLE
5
340
100
AcDbEntity
8
0
100
AcDbCircle
10
472.71446609406718
20
98.785533905932709
30
0
40
0.95000000000000195
210
0
220
0
230
1
0
CIRCLE
5
341
100
AcDbEntity
8
0
100
AcDbCircle
10
543.28553390593265
20
91.714466094067262
30
0
40
0.95000000000000195
210
0
220
0
230
1
0
CIRCLE
5
342
100
AcDbEntity
8
0
100
AcDbCircle
10
536.21446609406712
20
98.785533905932709
30
0
40
0.95000000000000195
210
0
220
0
230
1
0
CIRCLE
5
343
100
AcDbEntity
8
0
100
AcDbCircle
10
606.78553390593265
20
91.714466094067262
30
0
40
0.95000000000000195
210
0
220
0
230
1
0
CIRCLE
5
344
100
AcDbEntity
8
0
100
AcDbCircle
10
599.71446609406723
20
98.785533905932709
30
0
40
0.95000000000000195
210
0
220
0
230
1
0
CIRCLE
5
345
100
AcDbEntity
8
0
100
AcDbCircle
10
35.285533905932738
20
155.21446609406723
30
0
40
0.95000000000000195
210
0
220
0
230
1
0
CIRCLE
5
346
100
AcDbEntity
8
0
100
AcDbCircle
10
28.214466094067259
20
162.28553390593271
30
0
40
0.95000000000000195
210
0
220
0
230
1
0
CIRCLE
5
347
100
AcDbEntity
8
0
100
AcDbCircle
10
98.785533905932709
20
155.21446609406723
30
0
40
0.95000000000000195
210
0
220
0
230
1
0
CIRCLE
5
348
100
AcDbEntity
8
0
100
AcDbCircle
10
91.714466094067262
20
162.28553390593271
30
0
40
0.95000000000000195
210
0
220
0
230
1
0
CIRCLE
5
349
100
AcDbEntity
8
0
100
AcDbCircle
10
162.28553390593271
20
155.21446609406723
30
0
40
0.95000000000000195
210
0
220
0
230
1
0
CIRCLE
5
350
100
AcDbEntity
8
0
100
AcDbCircle
10
155.21446609406723
20
162.28553390593271
30
0
40
0.95000000000000195
210
0
220
0
230
1
0
CIRCLE
5
351
100
AcDbEntity
8
0
100
AcDbCircle
10
225.78553390593271
20
155.21446609406723
30
0
40
0.95000000000000195
210
0
220
0
230
1
0
CIRCLE
5
352
100
AcDbEntity
8
0
100
AcDbCircle
10
218.71446609406723
20
162.28553390593271
30
0
40
0.95000000000000195
210
0
220
0
230
1
0
CIRCLE
5
353
100
AcDbEntity
8
0
100
AcDbCircle
10
289.28553390593271
20
155.21446609406723
30
0
40
0.95000000000000195
210
0
220
0
230
1
0
CIRCLE
5
354
100
AcDbEntity
8
0
100
AcDbCircle
10
282.21446609406718
20
162.28553390593271
30
0
40
0.95000000000000195
210
0
220
0
230
1
0
CIRCLE
5
355
100
AcDbEntity
8
0
100
AcDbCircle
10
352.78553390593265
20
155.21446609406723
30
0
40
0.95000000000000195
210
0
220
0
230
1
0
CIRCLE
5
356
100
AcDbEntity
8
0
100
AcDbCircle
10
345.71446609406723
20
162.28553390593271
30
0
40
0.95000000000000195
210
0
220
0
230
1
0
CIRCLE
5
357
100
AcDbEntity
8
0
100
AcDbCircle
10
416.28553390593265
20
155.21446609406723
30
0
40
0.95000000000000195
210
0
220
0
230
1
0
CIRCLE
5
358
100
AcDbEntity
8
0
100
AcDbCircle
10
409.21446609406723
20
162.28553390593271
30
0
40
0.95000000000000195
210
0
220
0
230
1
0
CIRCLE
5
359
100
AcDbEntity
8
0
100
AcDbCircle
10
479.78553390593265
20
155.21446609406723
30
0
40
0.95000000000000195
210
0
220
0
230
1
0
CIRCLE
5
360
100
AcDbEntity
8
0
100
AcDbCircle
10
472.71446609406718
20
162.28553390593271
30
0
40
0.95000000000000195
210
0
220
0
230
1
0
CIRCLE
5
361
100
AcDbEntity
8
0
100
AcDbCircle
10
543.28553390593265
20
155.21446609406723
30
0
40
0.95000000000000195
210
0
220
0
230
1
0
CIRCLE
5
362
100
AcDbEntity
8
0
100
AcDbCircle
10
536.21446609406712
20
162.28553390593271
30
0
40
0.95000000000000195
210
0
220
0
230
1
0
CIRCLE
5
363
100
AcDbEntity
8
0
100
AcDbCircle
10
606.78553390593265
20
155.21446609406723
30
0
40
0.95000000000000195
210
0
220
0
230
1
0
CIRCLE
5
364
100
AcDbEntity
8
0
100
AcDbCircle
10
599.71446609406723
20
162.28553390593271
30
0
40
0.95000000000000195
210
0
220
0
230
1
0
CIRCLE
5
365
100
AcDbEntity
8
0
100
AcDbCircle
10
35.285533905932738
20
218.71446609406723
30
0
40
0.95000000000000195
210
0
220
0
230
1
0
CIRCLE
5
366
100
AcDbEntity
8
0
100
AcDbCircle
10
28.214466094067259
20
225.78553390593271
30
0
40
0.95000000000000195
210
0
220
0
230
1
0
CIRCLE
5
367
100
AcDbEntity
8
0
100
AcDbCircle
10
98.785533905932709
20
218.71446609406723
30
0
40
0.95000000000000195
210
0
220
0
230
1
0
CIRCLE
5
368
100
AcDbEntity
8
0
100
AcDbCircle
10
91.714466094067262
20
225.78553390593271
30
0
40
0.95000000000000195
210
0
220
0
230
1
0
CIRCLE
5
369
100
AcDbEntity
8
0
100
AcDbCircle
10
162.28553390593271
20
218.71446609406723
30
0
40
0.95000000000000195
210
0
220
0
230
1
0
CIRCLE
5
370
100
AcDbEntity
8
0
100
AcDbCircle
10
155.21446609406723
20
225.78553390593271
30
0
40
0.95000000000000195
210
0
220
0
230
1
0
CIRCLE
5
371
100
AcDbEntity
8
0
100
AcDbCircle
10
225.78553390593271
20
218.71446609406723
30
0
40
0.95000000000000195
210
0
220
0
230
1
0
CIRCLE
5
372
100
AcDbEntity
8
0
100
AcDbCircle
10
218.71446609406723
20
225.78553390593271
30
0
40
0.95000000000000195
210
0
220
0
230
1
0
CIRCLE
5
373
100
AcDbEntity
8
0
100
AcDbCircle
10
289.28553390593271
20
218.71446609406723
30
0
40
0.95000000000000195
210
0
220
0
230
1
0
CIRCLE
5
374
100
AcDbEntity
8
0
100
AcDbCircle
10
282.21446609406718
20
225.78553390593271
30
0
40
0.95000000000000195
210
0
220
0
230
1
0
CIRCLE
5
375
100
AcDbEntity
8
0
100
AcDbCircle
10
352.78553390593265
20
218.71446609406723
30
0
40
0.95000000000000195
210
0
220
0
230
1
0
CIRCLE
5
376
100
AcDbEntity
8
0
100
AcDbCircle
10
345.71446609406723
20
225.78553390593271
30
0
40
0.95000000000000195
210
0
220
0
230
1
0
CIRCLE
5
377
100
AcDbEntity
8
0
100
AcDbCircle
10
416.28553390593265
20
218.71446609406723
30
0
40
0.95000000000000195
210
0
220
0
230
1
0
CIRCLE
5
378
100
AcDbEntity
8
0
100
AcDbCircle
10
409.21446609406723
20
225.78553390593271
30
0
40
0.95000000000000195
210
0
220
0
230
1
0
CIRCLE
5
379
100
AcDbEntity
8
0
100
AcDbCircle
10
479.78553390593265
20
218.71446609406723
30
0
40
0.95000000000000195
210
0
220
0
230
1
0
CIRCLE
5
380
100
AcDbEntity
8
0
100
AcDbCircle
10
472.71446609406718
20
225.78553390593271
30
0
40
0.95000000000000195
210
0
220
0
230
1
0
CIRCLE
5
381
100
AcDbEntity
8
0
100
AcDbCircle
10
543.28553390593265
20
218.71446609406723
30
0
40
0.95000000000000195
210
0
220
0
230
1
0
CIRCLE
5
382
100
AcDbEntity
8
0
100
AcDbCircle
10
536.21446609406712
20
225.78553390593271
30
0
40
0.95000000000000195
210
0
220
0
230
1
0
CIRCLE
5
383
100
AcDbEntity
8
0
100
AcDbCircle
10
606.78553390593265
20
218.71446609406723
30
0
40
0.95000000000000195
210
0
220
0
230
1
0
CIRCLE
5
384
100
AcDbEntity
8
0
100
AcDbCircle
10
599.71446609406723
20
225.78553390593271
30
0
40
0.95000000000000195
210
0
220
0
230
1
0
CIRCLE
5
385
100
AcDbEntity
8
0
100
AcDbCircle
10
35.285533905932738
20
282.21446609406718
30
0
40
0.95000000000000195
210
0
220
0
230
1
0
CIRCLE
5
386
100
AcDbEntity
8
0
100
AcDbCircle
10
28.214466094067259
20
289.28553390593271
30
0
40
0.95000000000000195
210
0
220
0
230
1
0
CIRCLE
5
387
100
AcDbEntity
8
0
100
AcDbCircle
10
98.785533905932709
20
282.21446609406718
30
0
40
0.95000000000000195
210
0
220
0
230
1
0
CIRCLE
5
388
100
AcDbEntity
8
0
100
AcDbCircle
10
91.714466094067262
20
289.28553390593271
30
0
40
0.95000000000000195
210
0
220
0
230
1
0
CIRCLE
5
389
100
AcDbEntity
8
0
100
AcDbCircle
10
162.28553390593271
20
282.21446609406718
30
0
40
0.95000000000000195
210
0
220
0
230
1
0
CIRCLE
5
390
100
AcDbEntity
8
0
100
AcDbCircle
10
155.21446609406723
20
289.28553390593271
30
0
40
0.95000000000000195
210
0
220
0
230
1
0
CIRCLE
5
391
100
AcDbEntity
8
0
100
AcDbCircle
10
225.78553390593271
20
282.21446609406718
30
0
40
0.95000000000000195
210
0
220
0
230
1
0
CIRCLE
5
392
100
AcDbEntity
8
0
100
AcDbCircle
10
218.71446609406723
20
289.28553390593271
30
0
40
0.95000000000000195
210
0
220
0
230
1
0
CIRCLE
5
393
100
AcDbEntity
8
0
100
AcDbCircle
10
289.28553390593271
20
282.21446609406718
30
0
40
0.95000000000000195
210
0
220
0
230
1
0
CIRCLE
5
394
100
AcDbEntity
8
0
100
AcDbCircle
10
282.21446609406718
20
289.28553390593271
30
0
40
0.95000000000000195
210
0
220
0
230
1
0
CIRCLE
5
395
100
AcDbEntity
8
0
100
AcDbCircle
10
352.78553390593265
20
282.21446609406718
30
0
40
0.95000000000000195
210
0
220
0
230
1
0
CIRCLE
5
396
100
AcDbEntity
8
0
100
AcDbCircle
10
345.71446609406723
20
289.28553390593271
30
0
40
0.95000000000000195
210
0
220
0
230
1
0
CIRCLE
5
397
100
AcDbEntity
8
0
100
AcDbCircle
10
416.28553390593265
20
282.21446609406718
30
0
40
0.95000000000000195
210
0
220
0
230
1
0
CIRCLE
5
398
100
AcDbEntity
8
0
100
AcDbCircle
10
409.21446609406723
20
289.28553390593271
30
0
40
0.95000000000000195
210
0
220
0
230
1
0
CIRCLE
5
399
100
AcDbEntity
8
0
100
AcDbCircle
10
479.78553390593265
20
282.21446609406718
30
0
40
0.95000000000000195
210
0
220
0
230
1
0
CIRCLE
5
400
100
AcDbEntity
8
0
100
AcDbCircle
10
472.71446609406718
20
289.28553390593271
30
0
40
0.95000000000000195
210
0
220
0
230
1
0
CIRCLE
5
401
100
AcDbEntity
8
0
100
AcDbCircle
10
543.28553390593265
20
282.21446609406718
30
0
40
0.95000000000000195
210
0
220
0
230
1
0
CIRCLE
5
402
100
AcDbEntity
8
0
100
AcDbCircle
10
536.21446609406712
20
289.28553390593271
30
0
40
0.95000000000000195
210
0
220
0
230
1
0
CIRCLE
5
403
100
AcDbEntity
8
0
100
AcDbCircle
10
606.78553390593265
20
282.21446609406718
30
0
40
0.95000000000000195
210
0
220
0
230
1
0
CIRCLE
5
404
100
AcDbEntity
8
0
100
AcDbCircle
10
599.71446609406723
20
289.28553390593271
30
0
40
0.95000000000000195
210
0
220
0
230
1
0
CIRCLE
5
405
100
AcDbEntity
8
0
100
AcDbCircle
10
35.285533905932738
20
345.71446609406723
30
0
40
0.95000000000000195
210
0
220
0
230
1
0
CIRCLE
5
406
100
AcDbEntity
8
0
100
AcDbCircle
10
28.214466094067259
20
352.78553390593265
30
0
40
0.95000000000000195
210
0
220
0
230
1
0
CIRCLE
5
407
100
AcDbEntity
8
0
100
AcDbCircle
10
98.785533905932709
20
345.71446609406723
30
0
40
0.95000000000000195
210
0
220
0
230
1
0
CIRCLE
5
408
100
AcDbEntity
8
0
100
AcDbCircle
10
91.714466094067262
20
352.78553390593265
30
0
40
0.95000000000000195
210
0
220
0
230
1
0
CIRCLE
5
409
100
AcDbEntity
8
0
100
AcDbCircle
10
162.28553390593271
20
345.71446609406723
30
0
40
0.95000000000000195
210
0
220
0
230
1
0
CIRCLE
5
410
100
AcDbEntity
8
0
100
AcDbCircle
10
155.21446609406723
20
352.78553390593265
30
0
40
0.95000000000000195
210
0
220
0
230
1
0
CIRCLE
5
411
100
AcDbEntity
8
0
100
AcDbCircle
10
225.78553390593271
20
345.71446609406723
30
0
40
0.95000000000000195
210
0
220
0
230
1
0
CIRCLE
5
412
100
AcDbEntity
8
0
100
AcDbCircle
10
218.71446609406723
20
352.78553390593265
30
0
40
0.95000000000000195
210
0
220
0
230
1
0
CIRCLE
5
413
100
AcDbEntity
8
0
100
AcDbCircle
10
289.28553390593271
20
345.71446609406723
30
0
40
0.95000000000000195
210
0
220
0
230
1
0
CIRCLE
5
414
100
AcDbEntity
8
0
100
AcDbCircle
10
282.21446609406718
20
352.78553390593265
30
0
40
0.95000000000000195
210
0
220
0
230
1
0
CIRCLE
5
415
100
AcDbEntity
8
0
100
AcDbCircle
10
352.78553390593265
20
345.71446609406723
30
0
40
0.95000000000000195
210
0
220
0
230
1
0
CIRCLE
5
416
100
AcDbEntity
8
0
100
AcDbCircle
10
345.71446609406723
20
352.78553390593265
30
0
40
0.95000000000000195
210
0
220
0
230
1
0
CIRCLE
5
417
100
AcDbEntity
8
0
100
AcDbCircle
10
416.28553390593265
20
345.71446609406723
30
0
40
0.95000000000000195
210
0
220
0
230
1
0
CIRCLE
5
418
100
AcDbEntity
8
0
100
AcDbCircle
10
409.21446609406723
20
352.78553390593265
30
0
40
0.95000000000000195
210
0
220
0
230
1
0
CIRCLE
5
419
100
AcDbEntity
8
0
100
AcDbCircle
10
479.78553390593265
20
345.71446609406723
30
0
40
0.95000000000000195
210
0
220
0
230
1
0
CIRCLE
5
420
100
AcDbEntity
8
0
100
AcDbCircle
10
472.71446609406718
20
352.78553390593265
30
0
40
0.95000000000000195
210
0
220
0
230
1
0
CIRCLE
5
421
100
AcDbEntity
8
0
100
AcDbCircle
10
543.28553390593265
20
345.71446609406723
30
0
40
0.95000000000000195
210
0
220
0
230
1
0
CIRCLE
5
422
100
AcDbEntity
8
0
100
AcDbCircle
10
536.21446609406712
20
352.78553390593265
30
0
40
0.95000000000000195
210
0
220
0
230
1
0
CIRCLE
5
423
100
AcDbEntity
8
0
100
AcDbCircle
10
606.78553390593265
20
345.71446609406723
30
0
40
0.95000000000000195
210
0
220
0
230
1
0
CIRCLE
5
424
100
AcDbEntity
8
0
100
AcDbCircle
10
599.71446609406723
20
352.78553390593265
30
0
40
0.95000000000000195
210
0
220
0
230
1
0
CIRCLE
5
425
100
AcDbEntity
8
0
100
AcDbCircle
10
35.285533905932738
20
409.21446609406723
30
0
40
0.95000000000000195
210
0
220
0
230
1
0
CIRCLE
5
426
100
AcDbEntity
8
0
100
AcDbCircle
10
28.214466094067259
20
416.28553390593265
30
0
40
0.95000000000000195
210
0
220
0
230
1
0
CIRCLE
5
427
100
AcDbEntity
8
0
100
AcDbCircle
10
98.785533905932709
20
409.21446609406723
30
0
40
0.95000000000000195
210
0
220
0
230
1
0
CIRCLE
5
428
100
AcDbEntity
8
0
100
AcDbCircle
10
91.714466094067262
20
416.28553390593265
30
0
40
0.95000000000000195
210
0
220
0
230
1
0
CIRCLE
5
429
100
AcDbEntity
8
0
100
AcDbCircle
10
162.28553390593271
20
409.21446609406723
30
0
40
0.95000000000000195
210
0
220
0
230
1
0
CIRCLE
5
430
100
AcDbEntity
8
0
100
AcDbCircle
10
155.21446609406723
20
416.28553390593265
30
0
40
0.95000000000000195
210
0
220
0
230
1
0
CIRCLE
5
431
100
AcDbEntity
8
0
100
AcDbCircle
10
225.78553390593271
20
409.21446609406723
30
0
40
0.95000000000000195
210
0
220
0
230
1
0
CIRCLE
5
432
100
AcDbEntity
8
0
100
AcDbCircle
10
218.71446609406723
20
416.28553390593265
30
0
40
0.95000000000000195
210
0
220
0
230
1
0
CIRCLE
5
433
100
AcDbEntity
8
0
100
AcDbCircle
10
289.28553390593271
20
409.21446609406723
30
0
40
0.95000000000000195
210
0
220
0
230
1
0
CIRCLE
5
434
100
AcDbEntity
8
0
100
AcDbCircle
10
282.21446609406718
20
416.28553390593265
30
0
40
0.95000000000000195
210
0
220
0
230
1
0
CIRCLE
5
435
100
AcDbEntity
8
0
100
AcDbCircle
10
352.78553390593265
20
409.21446609406723
30
0
40
0.95000000000000195
210
0
220
0
230
1
0
CIRCLE
5
436
100
AcDbEntity
8
0
100
AcDbCircle
10
345.71446609406723
20
416.28553390593265
30
0
40
0.95000000000000195
210
0
220
0
230
1
0
CIRCLE
5
437
100
AcDbEntity
8
0
100
AcDbCircle
10
416.28553390593265
20
409.21446609406723
30
0
40
0.95000000000000195
210
0
220
0
230
1
0
CIRCLE
5
438
100
AcDbEntity
8
0
100
AcDbCircle
10
409.21446609406723
20
416.28553390593265
30
0
40
0.95000000000000195
210
0
220
0
230
1
0
CIRCLE
5
439
100
AcDbEntity
8
0
100
AcDbCircle
10
479.78553390593265
20
409.21446609406723
30
0
40
0.95000000000000195
210
0
220
0
230
1
0
CIRCLE
5
440
100
AcDbEntity
8
0
100
AcDbCircle
10
472.71446609406718
20
416.28553390593265
30
0
40
0.95000000000000195
210
0
220
0
230
1
0
CIRCLE
5
441
100
AcDbEntity
8
0
100
AcDbCircle
10
543.28553390593265
20
409.21446609406723
30
0
40
0.95000000000000195
210
0
220
0
230
1
0
CIRCLE
5
442
100
AcDbEntity
8
0
100
AcDbCircle
10
536.21446609406712
20
416.28553390593265
30
0
40
0.95000000000000195
210
0
220
0
230
1
0
CIRCLE
5
443
100
AcDbEntity
8
0
100
AcDbCircle
10
606.78553390593265
20
409.21446609406723
30
0
40
0.95000000000000195
210
0
220
0
230
1
0
CIRCLE
5
444
100
AcDbEntity
8
0
100
AcDbCircle
10
599.71446609406723
20
416.28553390593265
30
0
40
0.95000000000000195
210
0
220
0
230
1
0
CIRCLE
5
445
100
AcDbEntity
8
0
100
AcDbCircle
10
35.285533905932738
20
472.71446609406718
30
0
40
0.95000000000000195
210
0
220
0
230
1
0
CIRCLE
5
446
100
AcDbEntity
8
0
100
AcDbCircle
10
28.214466094067259
20
479.78553390593265
30
0
40
0.95000000000000195
210
0
220
0
230
1
0
CIRCLE
5
447
100
AcDbEntity
8
0
100
AcDbCircle
10
98.785533905932709
20
472.71446609406718
30
0
40
0.95000000000000195
210
0
220
0
230
1
0
CIRCLE
5
448
100
AcDbEntity
8
0
100
AcDbCircle
10
91.714466094067262
20
479.78553390593265
30
0
40
0.95000000000000195
210
0
220
0
230
1
0
CIRCLE
5
449
100
AcDbEntity
8
0
100
AcDbCircle
10
162.28553390593271
20
472.71446609406718
30
0
40
0.95000000000000195
210
0
220
0
230
1
0
CIRCLE
5
450
100
AcDbEntity
8
0
100
AcDbCircle
10
155.21446609406723
20
479.78553390593265
30
0
40
0.95000000000000195
210
0
220
0
230
1
0
CIRCLE
5
451
100
AcDbEntity
8
0
100
AcDbCircle
10
225.78553390593271
20
472.71446609406718
30
0
40
0.95000000000000195
210
0
220
0
230
1
0
CIRCLE
5
452
100
AcDbEntity
8
0
100
AcDbCircle
10
218.71446609406723
20
479.78553390593265
30
0
40
0.95000000000000195
210
0
220
0
230
1
0
CIRCLE
5
453
100
AcDbEntity
8
0
100
AcDbCircle
10
289.28553390593271
20
472.71446609406718
30
0
40
0.95000000000000195
210
0
220
0
230
1
0
CIRCLE
5
454
100
AcDbEntity
8
0
100
AcDbCircle
10
282.21446609406718
20
479.78553390593265
30
0
40
0.95000000000000195
210
0
220
0
230
1
0
CIRCLE
5
455
100
AcDbEntity
8
0
100
AcDbCircle
10
352.78553390593265
20
472.71446609406718
30
0
40
0.95000000000000195
210
0
220
0
230
1
0
CIRCLE
5
456
100
AcDbEntity
8
0
100
AcDbCircle
10
345.71446609406723
20
479.78553390593265
30
0
40
0.95000000000000195
210
0
220
0
230
1
0
CIRCLE
5
457
100
AcDbEntity
8
0
100
AcDbCircle
10
416.28553390593265
20
472.71446609406718
30
0
40
0.95000000000000195
210
0
220
0
230
1
0
CIRCLE
5
458
100
AcDbEntity
8
0
100
AcDbCircle
10
409.21446609406723
20
479.78553390593265
30
0
40
0.95000000000000195
210
0
220
0
230
1
0
CIRCLE
5
459
100
AcDbEntity
8
0
100
AcDbCircle
10
479.78553390593265
20
472.71446609406718
30
0
40
0.95000000000000195
210
0
220
0
230
1
0
CIRCLE
5
460
100
AcDbEntity
8
0
100
AcDbCircle
10
472.71446609406718
20
479.78553390593265
30
0
40
0.95000000000000195
210
0
220
0
230
1
0
CIRCLE
5
461
100
AcDbEntity
8
0
100
AcDbCircle
10
543.28553390593265
20
472.71446609406718
30
0
40
0.95000000000000195
210
0
220
0
230
1
0
CIRCLE
5
462
100
AcDbEntity
8
0
100
AcDbCircle
10
536.21446609406712
20
479.78553390593265
30
0
40
0.95000000000000195
210
0
220
0
230
1
0
CIRCLE
5
463
100
AcDbEntity
8
0
100
AcDbCircle
10
606.78553390593265
20
472.71446609406718
30
0
40
0.95000000000000195
210
0
220
0
230
1
0
CIRCLE
5
464
100
AcDbEntity
8
0
100
AcDbCircle
10
599.71446609406723
20
479.78553390593265
30
0
40
0.95000000000000195
210
0
220
0
230
1
0
CIRCLE
5
465
100
AcDbEntity
8
0
100
AcDbCircle
10
35.285533905932738
20
536.21446609406712
30
0
40
0.95000000000000195
210
0
220
0
230
1
0
CIRCLE
5
466
100
AcDbEntity
8
0
100
AcDbCircle
10
28.214466094067259
20
543.28553390593265
30
0
40
0.95000000000000195
210
0
220
0
230
1
0
CIRCLE
5
467
100
AcDbEntity
8
0
100
AcDbCircle
10
98.785533905932709
20
536.21446609406712
30
0
40
0.95000000000000195
210
0
220
0
230
1
0
CIRCLE
5
468
100
AcDbEntity
8
0
100
AcDbCircle
10
91.714466094067262
20
543.28553390593265
30
0
40
0.95000000000000195
210
0
220
0
230
1
0
CIRCLE
5
469
100
AcDbEntity
8
0
100
AcDbCircle
10
162.28553390593271
20
536.21446609406712
30
0
40
0.95000000000000195
210
0
220
0
230
1
0
CIRCLE
5
470
100
AcDbEntity
8
0
100
AcDbCircle
10
155.21446609406723
20
543.28553390593265
30
0
40
0.95000000000000195
210
0
220
0
230
1
0
CIRCLE
5
471
100
AcDbEntity
8
0
100
AcDbCircle
10
225.78553390593271
20
536.21446609406712
30
0
40
0.95000000000000195
210
0
220
0
230
1
0
CIRCLE
5
472
100
AcDbEntity
8
0
100
AcDbCircle
10
218.71446609406723
20
543.28553390593265
30
0
40
0.95000000000000195
210
0
220
0
230
1
0
CIRCLE
5
473
100
AcDbEntity
8
0
100
AcDbCircle
10
289.28553390593271
20
536.21446609406712
30
0
40
0.95000000000000195
210
0
220
0
230
1
0
CIRCLE
5
474
100
AcDbEntity
8
0
100
AcDbCircle
10
282.21446609406718
20
543.28553390593265
30
0
40
0.95000000000000195
210
0
220
0
230
1
0
CIRCLE
5
475
100
AcDbEntity
8
0
100
AcDbCircle
10
352.78553390593265
20
536.21446609406712
30
0
40
0.95000000000000195
210
0
220
0
230
1
0
CIRCLE
5
476
100
AcDbEntity
8
0
100
AcDbCircle
10
345.71446609406723
20
543.28553390593265
30
0
40
0.95000000000000195
210
0
220
0
230
1
0
CIRCLE
5
477
100
AcDbEntity
8
0
100
AcDbCircle
10
416.28553390593265
20
536.21446609406712
30
0
40
0.95000000000000195
210
0
220
0
230
1
0
CIRCLE
5
478
100
AcDbEntity
8
0
100
AcDbCircle
10
409.21446609406723
20
543.28553390593265
30
0
40
0.95000000000000195
210
0
220
0
230
1
0
CIRCLE
5
479
100
AcDbEntity
8
0
100
AcDbCircle
10
479.78553390593265
20
536.21446609406712
30
0
40
0.95000000000000195
210
0
220
0
230
1
0
CIRCLE
5
480
100
AcDbEntity
8
0
100
AcDbCircle
10
472.71446609406718
20
543.28553390593265
30
0
40
0.95000000000000195
210
0
220
0
230
1
0
CIRCLE
5
481
100
AcDbEntity
8
0
100
AcDbCircle
10
543.28553390593265
20
536.21446609406712
30
0
40
0.95000000000000195
210
0
220
0
230
1
0
CIRCLE
5
482
100
AcDbEntity
8
0
100
AcDbCircle
10
536.21446609406712
20
543.28553390593265
30
0
40
0.95000000000000195
210
0
220
0
230
1
0
CIRCLE
5
483
100
AcDbEntity
8
0
100
AcDbCircle
10
606.78553390593265
20
536.21446609406712
30
0
40
0.95000000000000195
210
0
220
0
230
1
0
CIRCLE
5
484
100
AcDbEntity
8
0
100
AcDbCircle
10
599.71446609406723
20
543.28553390593265
30
0
40
0.95000000000000195
210
0
220
0
230
1
0
CIRCLE
5
485
100
AcDbEntity
8
0
100
AcDbCircle
10
35.285533905932738
20
599.71446609406723
30
0
40
0.95000000000000195
210
0
220
0
230
1
0
CIRCLE
5
486
100
AcDbEntity
8
0
100
AcDbCircle
10
28.214466094067259
20
606.78553390593265
30
0
40
0.95000000000000195
210
0
220
0
230
1
0
CIRCLE
5
487
100
AcDbEntity
8
0
100
AcDbCircle
10
98.785533905932709
20
599.71446609406723
30
0
40
0.95000000000000195
210
0
220
0
230
1
0
CIRCLE
5
488
100
AcDbEntity
8
0
100
AcDbCircle
10
91.714466094067262
20
606.78553390593265
30
0
40
0.95000000000000195
210
0
220
0
230
1
0
CIRCLE
5
489
100
AcDbEntity
8
0
100
AcDbCircle
10
162.28553390593271
20
599.71446609406723
30
0
40
0.95000000000000195
210
0
220
0
230
1
0
CIRCLE
5
490
100
AcDbEntity
8
0
100
AcDbCircle
10
155.21446609406723
20
606.78553390593265
30
0
40
0.95000000000000195
210
0
220
0
230
1
0
CIRCLE
5
491
100
AcDbEntity
8
0
100
AcDbCircle
10
225.78553390593271
20
599.71446609406723
30
0
40
0.95000000000000195
210
0
220
0
230
1
0
CIRCLE
5
492
100
AcDbEntity
8
0
100
AcDbCircle
10
218.71446609406723
20
606.78553390593265
30
0
40
0.95000000000000195
210
0
220
0
230
1
0
CIRCLE
5
493
100
AcDbEntity
8
0
100
AcDbCircle
10
289.28553390593271
20
599.71446609406723
30
0
40
0.95000000000000195
210
0
220
0
230
1
0
CIRCLE
5
494
100
AcDbEntity
8
0
100
AcDbCircle
10
282.21446609406718
20
606.78553390593265
30
0
40
0.95000000000000195
210
0
220
0
230
1
0
CIRCLE
5
495
100
AcDbEntity
8
0
100
AcDbCircle
10
352.78553390593265
20
599.71446609406723
30
0
40
0.95000000000000195
210
0
220
0
230
1
0
CIRCLE
5
496
100
AcDbEntity
8
0
100
AcDbCircle
10
345.71446609406723
20
606.78553390593265
30
0
40
0.95000000000000195
210
0
220
0
230
1
0
CIRCLE
5
497
100
AcDbEntity
8
0
100
AcDbCircle
10
416.28553390593265
20
599.71446609406723
30
0
40
0.95000000000000195
210
0
220
0
230
1
0
CIRCLE
5
498
100
AcDbEntity
8
0
100
AcDbCircle
10
409.21446609406723
20
606.78553390593265
30
0
40
0.95000000000000195
210
0
220
0
230
1
0
CIRCLE
5
499
100
AcDbEntity
8
0
100
AcDbCircle
10
479.78553390593265
20
599.71446609406723
30
0
40
0.95000000000000195
210
0
220
0
230
1
0
CIRCLE
5
500
100
AcDbEntity
8
0
100
AcDbCircle
10
472.71446609406718
20
606.78553390593265
30
0
40
0.95000000000000195
210
0
220
0
230
1
0
CIRCLE
5
501
100
AcDbEntity
8
0
100
AcDbCircle
10
543.28553390593265
20
599.71446609406723
30
0
40
0.95000000000000195
210
0
220
0
230
1
0
CIRCLE
5
502
100
AcDbEntity
8
0
100
AcDbCircle
10
536.21446609406712
20
606.78553390593265
30
0
40
0.95000000000000195
210
0
220
0
230
1
0
CIRCLE
5
503
100
AcDbEntity
8
0
100
AcDbCircle
10
606.78553390593265
20
599.71446609406723
30
0
40
0.95000000000000195
210
0
220
0
230
1
0
CIRCLE
5
504
100
AcDbEntity
8
0
100
AcDbCircle
10
599.71446609406723
20
606.78553390593265
30
0
40
0.95000000000000195
210
0
220
0
230
1
0
LINE
5
505
100
AcDbEntity
8
0
100
AcDbLine
10
63.5
20
0
30
0
11
635
21
0
31
0
0
LINE
5
506
100
AcDbEntity
8
0
100
AcDbLine
10
0
20
63.5
30
0
11
0
21
635
31
0
0
ENDSEC
0
SECTION
2
OBJECTS
0
DICTIONARY
5
C
100
AcDbDictionary
3
ACAD_GROUP
350
D
3
ACAD_MLINESTYLE
350
17
0
DICTIONARY
5
D
100
AcDbDictionary
0
DICTIONARY
5
1A
330
C
100
AcDbDictionary
0
DICTIONARY
5
17
100
AcDbDictionary
0
ENDSEC
0
EOF
